<svg width="512" height="512" viewBox="0 0 512 512" fill="none" xmlns="http://www.w3.org/2000/svg">
<rect width="512" height="512" fill="url(#paint0_linear_2_38)"/>
<mask id="path-1-inside-1_2_38" fill="white">
<path fill-rule="evenodd" clip-rule="evenodd" d="M211 396C133.68 396 71 333.32 71 256C71 178.68 133.68 116 211 116C274.116 116 327.476 157.766 344.952 215.167C346.787 215.056 348.637 215 350.5 215C400.482 215 441 255.518 441 305.5C441 355.315 400.752 395.73 351 395.999V396H350.5H211Z"/>
</mask>
<path d="M344.952 215.167L291.379 231.477C298.923 256.257 322.477 272.629 348.332 271.065L344.952 215.167ZM351 395.999L350.697 339.999C319.888 340.166 295 365.189 295 395.999H351ZM351 396V452C381.928 452 407 426.928 407 396H351ZM211 340C164.608 340 127 302.392 127 256H15C15 364.248 102.752 452 211 452V340ZM127 256C127 209.608 164.608 172 211 172V60C102.752 60 15 147.752 15 256H127ZM211 172C248.786 172 280.881 196.992 291.379 231.477L398.524 198.858C374.072 118.54 299.445 60 211 60V172ZM350.5 159C347.509 159 344.531 159.09 341.571 159.269L348.332 271.065C349.043 271.022 349.765 271 350.5 271V159ZM497 305.5C497 224.59 431.41 159 350.5 159V271C369.554 271 385 286.446 385 305.5H497ZM351.303 451.998C431.847 451.562 497 386.141 497 305.5H385C385 324.489 369.656 339.897 350.697 339.999L351.303 451.998ZM407 396V395.999H295V396H407ZM350.5 452H351V340H350.5V452ZM211 452H350.5V340H211V452Z" fill="white" mask="url(#path-1-inside-1_2_38)"/>
<defs>
<linearGradient id="paint0_linear_2_38" x1="0" y1="0" x2="599.25" y2="371.116" gradientUnits="userSpaceOnUse">
<stop stop-color="#AD00FF"/>
<stop offset="1" stop-color="#FF003D"/>
</linearGradient>
</defs>
</svg>
