<svg width="512" height="512" viewBox="0 0 512 512" fill="none" xmlns="http://www.w3.org/2000/svg">
<mask id="path-1-inside-1_2_164" fill="white">
<path fill-rule="evenodd" clip-rule="evenodd" d="M193.73 449.73C86.7358 449.73 0 362.994 0 256C0 149.006 86.7358 62.2703 193.73 62.2703C281.068 62.2703 354.908 120.065 379.09 199.496C381.63 199.343 384.189 199.265 386.768 199.265C455.932 199.265 512 255.333 512 324.497C512 393.43 456.305 449.355 387.459 449.728V449.73H386.768H193.73Z"/>
</mask>
<path d="M379.09 199.496L304.958 222.065C315.397 256.355 347.99 279.011 383.768 276.847L379.09 199.496ZM387.459 449.728L387.04 372.237C344.407 372.468 309.968 407.094 309.968 449.728H387.459ZM387.459 449.73V527.222C430.257 527.222 464.951 492.527 464.951 449.73H387.459ZM193.73 372.238C129.533 372.238 77.4919 320.196 77.4919 256H-77.4919C-77.4919 405.792 43.9382 527.222 193.73 527.222V372.238ZM77.4919 256C77.4919 191.804 129.533 139.762 193.73 139.762V-15.2216C43.9382 -15.2216 -77.4919 106.208 -77.4919 256H77.4919ZM193.73 139.762C246.017 139.762 290.43 174.346 304.958 222.065L453.223 176.927C419.386 65.7848 316.119 -15.2216 193.73 -15.2216V139.762ZM386.768 121.773C382.628 121.773 378.508 121.898 374.412 122.146L383.768 276.847C384.751 276.787 385.751 276.757 386.768 276.757V121.773ZM589.492 324.497C589.492 212.536 498.729 121.773 386.768 121.773V276.757C413.134 276.757 434.508 298.131 434.508 324.497H589.492ZM387.879 527.219C499.334 526.616 589.492 436.088 589.492 324.497H434.508C434.508 350.773 413.276 372.095 387.04 372.237L387.879 527.219ZM464.951 449.73V449.728H309.968V449.73H464.951ZM386.768 527.222H387.459V372.238H386.768V527.222ZM193.73 527.222H386.768V372.238H193.73V527.222Z" fill="white" mask="url(#path-1-inside-1_2_164)"/>
</svg>
