<svg width="1325" height="314" viewBox="0 0 1325 314" fill="none" xmlns="http://www.w3.org/2000/svg">
<g clip-path="url(#clip0_2_105)">
<mask id="path-1-inside-1_2_105" fill="white">
<path fill-rule="evenodd" clip-rule="evenodd" d="M156.805 313.805C70.2039 313.805 0 243.601 0 157C0 70.3992 70.2039 0.195312 156.805 0.195312C227.496 0.195312 287.262 46.9745 306.835 111.266C308.891 111.142 310.963 111.079 313.049 111.079C369.031 111.079 414.412 156.46 414.412 212.442C414.412 268.236 369.333 313.502 313.609 313.803V313.805H313.049H156.805Z"/>
</mask>
<path d="M306.835 111.266L246.832 129.533C255.282 157.287 281.663 175.625 310.622 173.874L306.835 111.266ZM313.609 313.803L313.27 251.082C278.763 251.269 250.888 279.295 250.888 313.803H313.609ZM313.609 313.805V376.527C348.25 376.527 376.331 348.445 376.331 313.805H313.609ZM156.805 251.083C104.844 251.083 62.7219 208.961 62.7219 157H-62.7219C-62.7219 278.241 35.5635 376.527 156.805 376.527V251.083ZM62.7219 157C62.7219 105.04 104.844 62.9172 156.805 62.9172V-62.5266C35.5635 -62.5266 -62.7219 35.7588 -62.7219 157H62.7219ZM156.805 62.9172C199.126 62.9172 235.073 90.909 246.832 129.533L366.838 92.9986C339.451 3.03999 255.867 -62.5266 156.805 -62.5266V62.9172ZM313.049 48.3568C309.699 48.3568 306.364 48.458 303.049 48.6585L310.622 173.874C311.417 173.825 312.227 173.801 313.049 173.801V48.3568ZM477.134 212.442C477.134 121.82 403.671 48.3568 313.049 48.3568V173.801C334.39 173.801 351.691 191.101 351.691 212.442H477.134ZM313.949 376.524C404.161 376.036 477.134 302.763 477.134 212.442H351.691C351.691 233.709 334.505 250.967 313.27 251.082L313.949 376.524ZM376.331 313.805V313.803H250.888V313.805H376.331ZM313.049 376.527H313.609V251.083H313.049V376.527ZM156.805 376.527H313.049V251.083H156.805V376.527Z" fill="#18181B" mask="url(#path-1-inside-1_2_105)"/>
<path d="M506.679 229.916V83.2934H537.678V147.942H539.611L592.376 83.2934H629.532L575.122 148.944L630.177 229.916H593.091L552.928 169.635L537.678 188.249V229.916H506.679ZM708.732 183.094V119.949H739.231V229.916H709.949V209.942H708.804C706.322 216.385 702.193 221.563 696.418 225.477C690.691 229.391 683.698 231.348 675.441 231.348C668.091 231.348 661.624 229.677 656.04 226.336C650.455 222.995 646.088 218.246 642.938 212.089C639.836 205.932 638.261 198.558 638.213 189.967V119.949H668.712V184.526C668.759 191.017 670.501 196.148 673.938 199.919C677.374 203.689 681.98 205.574 687.755 205.574C691.43 205.574 694.867 204.739 698.065 203.069C701.263 201.35 703.84 198.821 705.797 195.48C707.801 192.139 708.78 188.01 708.732 183.094ZM763.626 229.916V119.949H793.194V139.136H794.34C796.344 132.311 799.709 127.156 804.434 123.672C809.159 120.14 814.6 118.374 820.757 118.374C822.285 118.374 823.931 118.469 825.697 118.66C827.463 118.851 829.014 119.114 830.351 119.448V146.51C828.919 146.081 826.938 145.699 824.409 145.365C821.879 145.031 819.564 144.863 817.464 144.863C812.978 144.863 808.968 145.842 805.436 147.799C801.952 149.708 799.184 152.381 797.132 155.817C795.127 159.254 794.125 163.215 794.125 167.702V229.916H763.626ZM874.327 231.992C867.311 231.992 861.058 230.775 855.57 228.341C850.081 225.859 845.737 222.208 842.54 217.387C839.39 212.519 837.814 206.457 837.814 199.203C837.814 193.093 838.936 187.962 841.179 183.81C843.423 179.658 846.477 176.317 850.343 173.787C854.209 171.257 858.6 169.348 863.516 168.06C868.48 166.771 873.683 165.864 879.124 165.339C885.519 164.671 890.674 164.05 894.588 163.478C898.502 162.857 901.341 161.95 903.107 160.757C904.873 159.564 905.756 157.798 905.756 155.459V155.03C905.756 150.495 904.324 146.987 901.461 144.505C898.645 142.024 894.635 140.783 889.433 140.783C883.944 140.783 879.577 142 876.332 144.434C873.086 146.82 870.938 149.827 869.888 153.455L841.68 151.164C843.112 144.482 845.928 138.706 850.128 133.838C854.329 128.922 859.746 125.151 866.38 122.526C873.062 119.854 880.794 118.517 889.576 118.517C895.686 118.517 901.532 119.233 907.117 120.665C912.749 122.097 917.736 124.316 922.08 127.323C926.471 130.33 929.931 134.196 932.46 138.921C934.99 143.599 936.255 149.207 936.255 155.746V229.916H907.331V214.667H906.472C904.706 218.103 902.344 221.134 899.385 223.759C896.425 226.336 892.87 228.365 888.717 229.844C884.565 231.276 879.768 231.992 874.327 231.992ZM883.061 210.944C887.548 210.944 891.509 210.061 894.946 208.295C898.382 206.481 901.079 204.047 903.036 200.992C904.993 197.938 905.971 194.477 905.971 190.611V178.942C905.016 179.562 903.704 180.135 902.033 180.66C900.411 181.137 898.573 181.591 896.521 182.02C894.468 182.402 892.416 182.76 890.364 183.094C888.311 183.381 886.45 183.643 884.78 183.882C881.2 184.407 878.074 185.242 875.401 186.387C872.728 187.533 870.652 189.084 869.172 191.041C867.693 192.95 866.953 195.337 866.953 198.2C866.953 202.353 868.456 205.527 871.463 207.722C874.518 209.87 878.384 210.944 883.061 210.944ZM1030.44 183.094V119.949H1060.93V229.916H1031.65V209.942H1030.51C1028.03 216.385 1023.9 221.563 1018.12 225.477C1012.39 229.391 1005.4 231.348 997.145 231.348C989.795 231.348 983.327 229.677 977.743 226.336C972.159 222.995 967.792 218.246 964.642 212.089C961.539 205.932 959.964 198.558 959.916 189.967V119.949H990.415V184.526C990.463 191.017 992.205 196.148 995.641 199.919C999.078 203.689 1003.68 205.574 1009.46 205.574C1013.13 205.574 1016.57 204.739 1019.77 203.069C1022.97 201.35 1025.54 198.821 1027.5 195.48C1029.5 192.139 1030.48 188.01 1030.44 183.094ZM1125.85 231.706C1117.5 231.706 1109.93 229.558 1103.16 225.262C1096.43 220.919 1091.08 214.547 1087.12 206.147C1083.21 197.699 1081.25 187.342 1081.25 175.076C1081.25 162.475 1083.28 151.999 1087.33 143.646C1091.39 135.246 1096.78 128.97 1103.51 124.817C1110.29 120.617 1117.71 118.517 1125.78 118.517C1131.94 118.517 1137.07 119.567 1141.17 121.667C1145.32 123.72 1148.67 126.297 1151.2 129.399C1153.77 132.454 1155.73 135.461 1157.07 138.42H1158V83.2934H1188.42V229.916H1158.35V212.304H1157.07C1155.63 215.359 1153.61 218.39 1150.98 221.396C1148.4 224.356 1145.04 226.814 1140.89 228.771C1136.78 230.727 1131.77 231.706 1125.85 231.706ZM1135.52 207.436C1140.43 207.436 1144.58 206.099 1147.97 203.427C1151.41 200.706 1154.04 196.912 1155.85 192.043C1157.71 187.175 1158.64 181.471 1158.64 174.933C1158.64 168.394 1157.73 162.714 1155.92 157.893C1154.11 153.073 1151.48 149.35 1148.05 146.725C1144.61 144.1 1140.43 142.787 1135.52 142.787C1130.5 142.787 1126.28 144.148 1122.84 146.868C1119.41 149.589 1116.81 153.359 1115.04 158.18C1113.27 163 1112.39 168.585 1112.39 174.933C1112.39 181.328 1113.27 186.984 1115.04 191.9C1116.85 196.768 1119.46 200.587 1122.84 203.355C1126.28 206.076 1130.5 207.436 1135.52 207.436ZM1263.18 232.064C1252.06 232.064 1242.45 229.701 1234.33 224.976C1226.27 220.203 1220.04 213.569 1215.65 205.073C1211.26 196.53 1209.06 186.626 1209.06 175.362C1209.06 164.003 1211.26 154.075 1215.65 145.579C1220.04 137.036 1226.27 130.402 1234.33 125.677C1242.45 120.904 1252.06 118.517 1263.18 118.517C1274.31 118.517 1283.9 120.904 1291.97 125.677C1300.08 130.402 1306.33 137.036 1310.72 145.579C1315.11 154.075 1317.31 164.003 1317.31 175.362C1317.31 186.626 1315.11 196.53 1310.72 205.073C1306.33 213.569 1300.08 220.203 1291.97 224.976C1283.9 229.701 1274.31 232.064 1263.18 232.064ZM1263.33 208.438C1268.39 208.438 1272.61 207.006 1276 204.143C1279.39 201.231 1281.94 197.27 1283.66 192.258C1285.43 187.247 1286.31 181.543 1286.31 175.147C1286.31 168.752 1285.43 163.048 1283.66 158.037C1281.94 153.025 1279.39 149.064 1276 146.152C1272.61 143.241 1268.39 141.785 1263.33 141.785C1258.22 141.785 1253.93 143.241 1250.44 146.152C1247 149.064 1244.4 153.025 1242.64 158.037C1240.92 163.048 1240.06 168.752 1240.06 175.147C1240.06 181.543 1240.92 187.247 1242.64 192.258C1244.4 197.27 1247 201.231 1250.44 204.143C1253.93 207.006 1258.22 208.438 1263.33 208.438Z" fill="#18181B"/>
</g>
<defs>
<clipPath id="clip0_2_105">
<rect width="1325" height="314" fill="white"/>
</clipPath>
</defs>
</svg>
