<svg width="1325" height="512" viewBox="0 0 1325 512" fill="none" xmlns="http://www.w3.org/2000/svg">
<rect width="1325" height="512" fill="#18181B"/>
<mask id="path-1-inside-1_2_88" fill="white">
<path fill-rule="evenodd" clip-rule="evenodd" d="M211 396C133.68 396 71 333.32 71 256C71 178.68 133.68 116 211 116C274.116 116 327.476 157.766 344.952 215.167C346.787 215.056 348.637 215 350.5 215C400.482 215 441 255.518 441 305.5C441 355.315 400.752 395.73 351 395.999V396H350.5H211Z"/>
</mask>
<path d="M344.952 215.167L291.379 231.477C298.923 256.257 322.477 272.629 348.332 271.065L344.952 215.167ZM351 395.999L350.697 339.999C319.888 340.166 295 365.189 295 395.999H351ZM351 396V452C381.928 452 407 426.928 407 396H351ZM211 340C164.608 340 127 302.392 127 256H15C15 364.248 102.752 452 211 452V340ZM127 256C127 209.608 164.608 172 211 172V60C102.752 60 15 147.752 15 256H127ZM211 172C248.786 172 280.881 196.992 291.379 231.477L398.524 198.858C374.072 118.54 299.445 60 211 60V172ZM350.5 159C347.509 159 344.531 159.09 341.571 159.269L348.332 271.065C349.043 271.022 349.765 271 350.5 271V159ZM497 305.5C497 224.59 431.41 159 350.5 159V271C369.554 271 385 286.446 385 305.5H497ZM351.303 451.998C431.847 451.562 497 386.141 497 305.5H385C385 324.489 369.656 339.897 350.697 339.999L351.303 451.998ZM407 396V395.999H295V396H407ZM350.5 452H351V340H350.5V452ZM211 452H350.5V340H211V452Z" fill="white" mask="url(#path-1-inside-1_2_88)"/>
<path d="M523.378 321V190.091H551.055V247.811H552.781L599.891 190.091H633.065L584.486 248.706L633.641 321H600.53L564.67 267.179L551.055 283.798V321H523.378ZM703.777 279.196V222.818H731.007V321H704.864V303.166H703.841C701.625 308.919 697.939 313.543 692.783 317.037C687.669 320.531 681.426 322.278 674.054 322.278C667.492 322.278 661.718 320.787 656.732 317.804C651.746 314.821 647.847 310.581 645.034 305.084C642.265 299.587 640.858 293.003 640.816 285.332V222.818H668.046V280.474C668.088 286.27 669.644 290.851 672.712 294.217C675.78 297.584 679.892 299.267 685.049 299.267C688.33 299.267 691.398 298.521 694.253 297.03C697.108 295.496 699.409 293.237 701.157 290.254C702.946 287.271 703.82 283.585 703.777 279.196ZM752.788 321V222.818H779.188V239.949H780.21C782 233.855 785.004 229.253 789.223 226.142C793.442 222.989 798.3 221.412 803.797 221.412C805.161 221.412 806.631 221.497 808.207 221.668C809.784 221.838 811.169 222.072 812.362 222.371V246.533C811.084 246.149 809.315 245.808 807.057 245.51C804.798 245.212 802.732 245.062 800.857 245.062C796.851 245.062 793.271 245.936 790.118 247.683C787.007 249.388 784.536 251.774 782.703 254.842C780.913 257.911 780.018 261.447 780.018 265.453V321H752.788ZM851.625 322.854C845.361 322.854 839.779 321.767 834.878 319.594C829.978 317.378 826.1 314.118 823.245 309.814C820.432 305.467 819.026 300.055 819.026 293.578C819.026 288.124 820.027 283.543 822.03 279.835C824.033 276.128 826.76 273.145 830.212 270.886C833.664 268.628 837.584 266.923 841.973 265.773C846.405 264.622 851.05 263.812 855.908 263.344C861.618 262.747 866.221 262.193 869.715 261.682C873.209 261.128 875.745 260.318 877.321 259.253C878.898 258.187 879.686 256.611 879.686 254.523V254.139C879.686 250.091 878.408 246.959 875.851 244.743C873.337 242.527 869.757 241.419 865.113 241.419C860.212 241.419 856.313 242.506 853.415 244.679C850.517 246.81 848.6 249.494 847.662 252.733L822.478 250.688C823.756 244.722 826.27 239.565 830.02 235.219C833.77 230.83 838.607 227.463 844.53 225.119C850.496 222.733 857.4 221.54 865.24 221.54C870.695 221.54 875.915 222.179 880.901 223.457C885.929 224.736 890.382 226.717 894.26 229.402C898.181 232.087 901.27 235.538 903.529 239.757C905.787 243.933 906.917 248.94 906.917 254.778V321H881.093V307.385H880.326C878.749 310.453 876.64 313.159 873.998 315.503C871.355 317.804 868.181 319.615 864.473 320.936C860.766 322.214 856.483 322.854 851.625 322.854ZM859.424 304.061C863.429 304.061 866.966 303.273 870.034 301.696C873.103 300.077 875.51 297.903 877.257 295.176C879.005 292.449 879.878 289.359 879.878 285.908V275.489C879.026 276.043 877.854 276.554 876.363 277.023C874.914 277.449 873.273 277.854 871.441 278.237C869.608 278.578 867.776 278.898 865.944 279.196C864.111 279.452 862.449 279.686 860.958 279.899C857.762 280.368 854.971 281.114 852.584 282.136C850.198 283.159 848.344 284.544 847.023 286.291C845.702 287.996 845.042 290.126 845.042 292.683C845.042 296.391 846.384 299.224 849.069 301.185C851.796 303.102 855.248 304.061 859.424 304.061ZM991.004 279.196V222.818H1018.23V321H992.091V303.166H991.068C988.852 308.919 985.166 313.543 980.01 317.037C974.896 320.531 968.653 322.278 961.281 322.278C954.718 322.278 948.944 320.787 943.958 317.804C938.973 314.821 935.074 310.581 932.261 305.084C929.491 299.587 928.085 293.003 928.042 285.332V222.818H955.272V280.474C955.315 286.27 956.87 290.851 959.939 294.217C963.007 297.584 967.119 299.267 972.275 299.267C975.556 299.267 978.625 298.521 981.48 297.03C984.335 295.496 986.636 293.237 988.383 290.254C990.173 287.271 991.047 283.585 991.004 279.196ZM1076.19 322.598C1068.74 322.598 1061.98 320.68 1055.93 316.845C1049.92 312.967 1045.15 307.278 1041.61 299.778C1038.12 292.236 1036.37 282.989 1036.37 272.037C1036.37 260.787 1038.18 251.433 1041.8 243.976C1045.43 236.476 1050.24 230.872 1056.25 227.165C1062.3 223.415 1068.93 221.54 1076.13 221.54C1081.63 221.54 1086.21 222.477 1089.87 224.352C1093.58 226.185 1096.56 228.486 1098.82 231.256C1101.12 233.983 1102.87 236.668 1104.06 239.31H1104.89V190.091H1132.06V321H1105.21V305.276H1104.06C1102.78 308.003 1100.97 310.709 1098.63 313.393C1096.33 316.036 1093.32 318.23 1089.62 319.977C1085.95 321.724 1081.48 322.598 1076.19 322.598ZM1084.82 300.929C1089.21 300.929 1092.92 299.736 1095.95 297.349C1099.01 294.92 1101.36 291.533 1102.98 287.186C1104.64 282.839 1105.47 277.747 1105.47 271.909C1105.47 266.071 1104.66 261 1103.04 256.696C1101.42 252.392 1099.08 249.068 1096.01 246.724C1092.94 244.381 1089.21 243.209 1084.82 243.209C1080.35 243.209 1076.58 244.423 1073.51 246.852C1070.44 249.281 1068.12 252.648 1066.54 256.952C1064.97 261.256 1064.18 266.241 1064.18 271.909C1064.18 277.619 1064.97 282.669 1066.54 287.058C1068.16 291.405 1070.48 294.814 1073.51 297.286C1076.58 299.714 1080.35 300.929 1084.82 300.929ZM1198.81 322.918C1188.88 322.918 1180.29 320.808 1173.05 316.589C1165.85 312.328 1160.29 306.405 1156.37 298.82C1152.45 291.192 1150.49 282.349 1150.49 272.293C1150.49 262.151 1152.45 253.287 1156.37 245.702C1160.29 238.074 1165.85 232.151 1173.05 227.932C1180.29 223.67 1188.88 221.54 1198.81 221.54C1208.74 221.54 1217.3 223.67 1224.51 227.932C1231.75 232.151 1237.33 238.074 1241.25 245.702C1245.17 253.287 1247.13 262.151 1247.13 272.293C1247.13 282.349 1245.17 291.192 1241.25 298.82C1237.33 306.405 1231.75 312.328 1224.51 316.589C1217.3 320.808 1208.74 322.918 1198.81 322.918ZM1198.94 301.824C1203.45 301.824 1207.23 300.545 1210.25 297.989C1213.28 295.389 1215.56 291.852 1217.09 287.378C1218.67 282.903 1219.46 277.811 1219.46 272.101C1219.46 266.391 1218.67 261.298 1217.09 256.824C1215.56 252.349 1213.28 248.812 1210.25 246.213C1207.23 243.614 1203.45 242.314 1198.94 242.314C1194.38 242.314 1190.54 243.614 1187.43 246.213C1184.36 248.812 1182.04 252.349 1180.46 256.824C1178.93 261.298 1178.16 266.391 1178.16 272.101C1178.16 277.811 1178.93 282.903 1180.46 287.378C1182.04 291.852 1184.36 295.389 1187.43 297.989C1190.54 300.545 1194.38 301.824 1198.94 301.824Z" fill="white"/>
</svg>
